HIERARCHY
ROOT Hips
{
    OFFSET 0.000000 0.000000 0.000000
    CHANNELS 6 Xposition Yposition Zposition Zrotation Xrotation Yrotation
    JOINT Spine
    {
        OFFSET -0.000002 7.912555 -0.000023
        CHANNELS 3 Zrotation Xrotation Yrotation
        JOINT Spine1
        {
            OFFSET -0.000002 20.967003 -0.000017
            CHANNELS 3 Zrotation Xrotation Yrotation
            JOINT Neck
            {
                OFFSET 0.000007 22.149519 0.000033
                CHANNELS 3 Zrotation Xrotation Yrotation
                JOINT Head
                {
                    OFFSET -0.000001 14.135933 1.902213
                    CHANNELS 3 Zrotation Xrotation Yrotation
                    End Site
                    {
                        OFFSET 0.000000 19.022141 0.000000
                    }
                }
            }
            JOINT LeftShoulder
            {
                OFFSET 3.797829 16.121201 -0.677323
                CHANNELS 3 Zrotation Xrotation Yrotation
                JOINT LeftArm
                {
                    OFFSET 11.576591 -0.000001 0.000003
                    CHANNELS 3 Zrotation Xrotation Yrotation
                    JOINT LeftForeArm
                    {
                        OFFSET 29.906420 0.000009 -0.000001
                        CHANNELS 3 Zrotation Xrotation Yrotation
                        JOINT LeftHand
                        {
                            OFFSET 24.318331 0.000003 -0.000010
                            CHANNELS 3 Zrotation Xrotation Yrotation
                            JOINT LeftHandThumb1
                            {
                                OFFSET 1.987815 -2.258873 3.162438
                                CHANNELS 3 Zrotation Xrotation Yrotation
                                JOINT LeftHandThumb2
                                {
                                    OFFSET 3.002307 0.000012 0.000001
                                    CHANNELS 3 Zrotation Xrotation Yrotation
                                    JOINT LeftHandThumb3
                                    {
                                        OFFSET 2.566088 0.000012 0.000001
                                        CHANNELS 3 Zrotation Xrotation Yrotation
                                        End Site
                                        {
                                            OFFSET 2.440626 0.000000 0.000000
                                        }
                                    }
                                }
                            }
                            JOINT LeftHandIndex1
                            {
                                OFFSET 8.131962 -0.000007 3.162420
                                CHANNELS 3 Zrotation Xrotation Yrotation
                                JOINT LeftHandIndex2
                                {
                                    OFFSET 4.517756 -0.000012 -0.000012
                                    CHANNELS 3 Zrotation Xrotation Yrotation
                                    JOINT LeftHandIndex3
                                    {
                                        OFFSET 2.258882 0.000012 0.000009
                                        CHANNELS 3 Zrotation Xrotation Yrotation
                                        End Site
                                        {
                                            OFFSET 2.148437 0.000000 0.000000
                                        }
                                    }
                                }
                            }
                            JOINT LeftHandMiddle1
                            {
                                OFFSET 8.131966 0.000003 1.048119
                                CHANNELS 3 Zrotation Xrotation Yrotation
                                JOINT LeftHandMiddle2
                                {
                                    OFFSET 4.969539 0.000018 0.000017
                                    CHANNELS 3 Zrotation Xrotation Yrotation
                                    JOINT LeftHandMiddle3
                                    {
                                        OFFSET 2.710657 0.000007 0.000006
                                        CHANNELS 3 Zrotation Xrotation Yrotation
                                        End Site
                                        {
                                            OFFSET 2.578118 0.000000 0.000000
                                        }
                                    }
                                }
                            }
                            JOINT LeftHandRing1
                            {
                                OFFSET 7.680196 0.000010 -1.048114
                                CHANNELS 3 Zrotation Xrotation Yrotation
                                JOINT LeftHandRing2
                                {
                                    OFFSET 4.517755 -0.000010 -0.000014
                                    CHANNELS 3 Zrotation Xrotation Yrotation
                                    JOINT LeftHandRing3
                                    {
                                        OFFSET 2.258881 0.000011 0.000011
                                        CHANNELS 3 Zrotation Xrotation Yrotation
                                        End Site
                                        {
                                            OFFSET 2.148437 0.000000 0.000000
                                        }
                                    }
                                }
                            }
                            JOINT LeftHandPinky1
                            {
                                OFFSET 7.228411 -0.000007 -3.162446
                                CHANNELS 3 Zrotation Xrotation Yrotation
                                JOINT LeftHandPinky2
                                {
                                    OFFSET 3.614204 0.000000 -0.000004
                                    CHANNELS 3 Zrotation Xrotation Yrotation
                                    JOINT LeftHandPinky3
                                    {
                                        OFFSET 1.807106 0.000012 0.000018
                                        CHANNELS 3 Zrotation Xrotation Yrotation
                                        End Site
                                        {
                                            OFFSET 1.718745 0.000000 0.000000
                                        }
                                    }
                                }
                            }
                        }
                    }
                }
            }
            JOINT RightShoulder
            {
                OFFSET -3.797831 16.121202 -0.677286
                CHANNELS 3 Zrotation Xrotation Yrotation
                JOINT RightArm
                {
                    OFFSET -11.576587 -0.000003 0.000003
                    CHANNELS 3 Zrotation Xrotation Yrotation
                    JOINT RightForeArm
                    {
                        OFFSET -29.906410 0.000012 -0.000003
                        CHANNELS 3 Zrotation Xrotation Yrotation
                        JOINT RightHand
                        {
                            OFFSET -24.318336 0.000010 0.000009
                            CHANNELS 3 Zrotation Xrotation Yrotation
                            JOINT RightHandThumb1
                            {
                                OFFSET -1.987823 -2.258880 3.162438
                                CHANNELS 3 Zrotation Xrotation Yrotation
                                JOINT RightHandThumb2
                                {
                                    OFFSET -3.002299 -0.000004 0.000005
                                    CHANNELS 3 Zrotation Xrotation Yrotation
                                    JOINT RightHandThumb3
                                    {
                                        OFFSET -2.566076 -0.000003 -0.000002
                                        CHANNELS 3 Zrotation Xrotation Yrotation
                                        End Site
                                        {
                                            OFFSET -2.440626 0.000000 0.000000
                                        }
                                    }
                                }
                            }
                            JOINT RightHandIndex1
                            {
                                OFFSET -8.131960 0.000002 3.162432
                                CHANNELS 3 Zrotation Xrotation Yrotation
                                JOINT RightHandIndex2
                                {
                                    OFFSET -4.517778 -0.000001 0.000013
                                    CHANNELS 3 Zrotation Xrotation Yrotation
                                    JOINT RightHandIndex3
                                    {
                                        OFFSET -2.258888 0.000005 0.000007
                                        CHANNELS 3 Zrotation Xrotation Yrotation
                                        End Site
                                        {
                                            OFFSET -2.148437 0.000000 0.000000
                                        }
                                    }
                                }
                            }
                            JOINT RightHandMiddle1
                            {
                                OFFSET -8.131976 0.000003 1.048130
                                CHANNELS 3 Zrotation Xrotation Yrotation
                                JOINT RightHandMiddle2
                                {
                                    OFFSET -4.969540 -0.000003 0.000001
                                    CHANNELS 3 Zrotation Xrotation Yrotation
                                    JOINT RightHandMiddle3
                                    {
                                        OFFSET -2.710650 -0.000002 -0.000004
                                        CHANNELS 3 Zrotation Xrotation Yrotation
                                        End Site
                                        {
                                            OFFSET -2.578118 0.000000 0.000000
                                        }
                                    }
                                }
                            }
                            JOINT RightHandRing1
                            {
                                OFFSET -7.680203 -0.000003 -1.048115
                                CHANNELS 3 Zrotation Xrotation Yrotation
                                JOINT RightHandRing2
                                {
                                    OFFSET -4.517777 -0.000002 0.000011
                                    CHANNELS 3 Zrotation Xrotation Yrotation
                                    JOINT RightHandRing3
                                    {
                                        OFFSET -2.258889 -0.000000 0.000005
                                        CHANNELS 3 Zrotation Xrotation Yrotation
                                        End Site
                                        {
                                            OFFSET -2.148437 0.000000 0.000000
                                        }
                                    }
                                }
                            }
                            JOINT RightHandPinky1
                            {
                                OFFSET -7.228416 -0.000001 -3.162432
                                CHANNELS 3 Zrotation Xrotation Yrotation
                                JOINT RightHandPinky2
                                {
                                    OFFSET -3.614213 -0.000001 0.000005
                                    CHANNELS 3 Zrotation Xrotation Yrotation
                                    JOINT RightHandPinky3
                                    {
                                        OFFSET -1.807086 0.000001 -0.000009
                                        CHANNELS 3 Zrotation Xrotation Yrotation
                                        End Site
                                        {
                                            OFFSET -1.718745 0.000000 0.000000
                                        }
                                    }
                                }
                            }
                        }
                    }
                }
            }
        }
    }
    JOINT LeftUpLeg
    {
        OFFSET 9.511071 0.000003 -0.000008
        CHANNELS 3 Zrotation Xrotation Yrotation
        JOINT LeftLeg
        {
            OFFSET 0.000006 -43.875641 0.000019
            CHANNELS 3 Zrotation Xrotation Yrotation
            JOINT LeftFoot
            {
                OFFSET 0.000003 -35.354160 0.000003
                CHANNELS 3 Zrotation Xrotation Yrotation
                JOINT LeftToeBase
                {
                    OFFSET 0.000004 -6.182193 14.266592
                    CHANNELS 3 Zrotation Xrotation Yrotation
                    End Site
                    {
                        OFFSET 0.000000 0.000000 3.804428
                    }
                }
            }
        }
    }
    JOINT RightUpLeg
    {
        OFFSET -9.511071 -0.000003 0.000008
        CHANNELS 3 Zrotation Xrotation Yrotation
        JOINT RightLeg
        {
            OFFSET -0.000005 -43.875633 -0.000015
            CHANNELS 3 Zrotation Xrotation Yrotation
            JOINT RightFoot
            {
                OFFSET -0.000004 -35.354164 -0.000013
                CHANNELS 3 Zrotation Xrotation Yrotation
                JOINT RightToeBase
                {
                    OFFSET -0.000000 -6.182192 14.266604
                    CHANNELS 3 Zrotation Xrotation Yrotation
                    End Site
                    {
                        OFFSET 0.000000 0.000000 3.804428
                    }
                }
            }
        }
    }
}
MOTION
Frames:    4
Frame Time:    0.002778
38.107258    94.103394    595.509888    3.956792    5.932883    -155.024811    -0.393815    5.541310    4.877344    -1.969067    5.538188    5.029419    1.492721    17.668924    -11.597827    1.492719    17.668921    -11.597826    3.020136    0.814809    4.748155    -67.688370    5.519348    -3.294748    -97.005112    13.395806    -78.354713    59.924561    -6.066016    -2.384053    47.448219    38.866432    -34.355034    -34.999996    0.000004    -0.000002    -0.000000    0.000000    -0.000000    0.000004    9.999994    -0.000007    -0.000000    0.000000    -0.000000    -0.000000    0.000000    -0.000000    -0.000000    0.000000    -0.000000    -0.000000    0.000000    -0.000000    -0.000000    0.000000    -0.000000    -0.000000    0.000000    -0.000000    -0.000000    0.000000    -0.000000    -0.000000    0.000000    -0.000000    -0.000007    -10.000000    -0.000007    -0.000000    0.000000    -0.000000    -0.000000    0.000000    -0.000000    -5.903826    0.875890    -0.210778    71.148430    3.988910    1.954704    -10.116224    27.447271    84.754028    -56.242638    17.504261    -11.202541    -47.448212    38.866428    34.355030    34.999989    -0.000001    0.000012    -0.000000    0.000000    -0.000000    -0.000000    10.000003    0.000002    -0.000000    0.000000    -0.000000    -0.000000    0.000000    -0.000000    -0.000000    0.000000    -0.000000    -0.000000    0.000000    -0.000000    -0.000000    0.000000    -0.000000    -0.000000    0.000000    -0.000000    -0.000000    0.000000    -0.000000    -0.000000    0.000000    -0.000000    -0.000001    -10.000001    -0.000002    -0.000000    0.000000    -0.000000    -0.000000    0.000000    -0.000000    21.782642    1.763038    -4.603225    0.000000    5.744538    -0.000001    -9.438607    -3.836004    3.047873    -0.000000    0.141208    0.000002    -1.018637    -2.036648    1.396385    0.000000    23.518661    0.000003    11.670869    -13.499745    -18.334978    0.000000    -3.573948    0.000000    
38.112988    94.105751    595.524170    3.960032    5.917998    -155.033508    -0.393453    5.530607    4.862473    -1.967260    5.527498    5.014122    1.515251    17.652250    -11.650834    1.515252    17.652254    -11.650838    3.012232    0.770388    4.718349    -67.692780    5.572300    -3.292204    -97.063622    13.243154    -78.334602    59.980667    -6.100961    -2.396098    47.448215    38.866432    -34.355034    -35.000008    -0.000009    0.000004    -0.000000    0.000000    -0.000000    -0.000003    9.999996    0.000000    -0.000000    0.000000    -0.000000    -0.000000    0.000000    -0.000000    -0.000000    0.000000    -0.000000    -0.000000    0.000000    -0.000000    -0.000000    0.000000    -0.000000    -0.000000    0.000000    -0.000000    -0.000000    0.000000    -0.000000    -0.000000    0.000000    -0.000000    0.000003    -9.999998    0.000004    -0.000000    0.000000    -0.000000    -0.000000    0.000000    -0.000000    -5.914563    0.859369    -0.209956    71.147789    4.023283    1.959772    -10.158216    27.447338    84.772453    -56.223988    17.503033    -11.209112    -47.448200    38.866432    34.355026    34.999996    0.000003    -0.000001    -0.000000    0.000000    -0.000000    0.000000    9.999995    -0.000006    -0.000000    0.000000    -0.000000    -0.000000    0.000000    -0.000000    -0.000000    0.000000    -0.000000    -0.000000    0.000000    -0.000000    -0.000000    0.000000    -0.000000    -0.000000    0.000000    -0.000000    -0.000000    0.000000    -0.000000    -0.000000    0.000000    -0.000000    -0.000003    -9.999999    -0.000005    -0.000000    0.000000    -0.000000    -0.000000    0.000000    -0.000000    21.776407    1.753228    -4.589621    0.000000    5.724357    -0.000000    -9.425848    -3.824062    3.046884    0.000000    0.139987    0.000001    -1.021057    -2.058100    1.405598    -0.000000    23.506975    0.000001    11.662391    -13.485015    -18.338350    -0.000000    -3.574361    -0.000000    
38.111019    94.116440    595.528625    3.968369    5.915008    -155.039261    -0.390149    5.516566    4.843958    -1.950735    5.513515    4.993947    1.533979    17.643551    -11.698927    1.533978    17.643547    -11.698924    2.995687    0.721765    4.686873    -67.714699    5.652210    -3.294408    -97.149971    13.088507    -78.323128    60.053078    -6.178882    -2.430163    47.448196    38.866428    -34.355007    -34.999996    0.000000    0.000000    -0.000000    0.000000    -0.000000    0.000003    10.000003    0.000003    -0.000000    0.000000    -0.000000    -0.000000    0.000000    -0.000000    -0.000000    0.000000    -0.000000    -0.000000    0.000000    -0.000000    -0.000000    0.000000    -0.000000    -0.000000    0.000000    -0.000000    -0.000000    0.000000    -0.000000    -0.000000    0.000000    -0.000000    0.000002    -10.000000    0.000000    -0.000000    0.000000    -0.000000    -0.000000    0.000000    -0.000000    -5.925147    0.853966    -0.218502    71.137215    4.066794    1.966434    -10.184595    27.448038    84.784096    -56.198883    17.500362    -11.217658    -47.448208    38.866432    34.355034    34.999996    0.000002    -0.000012    -0.000000    0.000000    -0.000000    0.000001    9.999999    -0.000002    -0.000000    0.000000    -0.000000    -0.000000    0.000000    -0.000000    -0.000000    0.000000    -0.000000    -0.000000    0.000000    -0.000000    -0.000000    0.000000    -0.000000    -0.000000    0.000000    -0.000000    -0.000000    0.000000    -0.000000    -0.000000    0.000000    -0.000000    -0.000004    -10.000003    -0.000009    -0.000000    0.000000    -0.000000    -0.000000    0.000000    -0.000000    21.776087    1.754720    -4.578197    0.000002    5.707318    0.000001    -9.391503    -3.795996    3.052567    0.000000    0.141710    -0.000000    -1.017924    -2.060629    1.402588    -0.000001    23.485043    0.000001    11.661572    -13.447663    -18.339094    0.000000    -3.571648    -0.000000    
38.111202    94.115036    595.547852    3.971401    5.905416    -155.060120    -0.387218    5.509004    4.828967    -1.936077    5.506003    4.977627    1.546717    17.625822    -11.742120    1.546725    17.625818    -11.742125    2.981792    0.657371    4.642631    -67.753479    5.730828    -3.297476    -97.241058    12.914432    -78.346146    60.117134    -6.291990    -2.485077    47.448196    38.866413    -34.355015    -35.000008    -0.000003    -0.000001    -0.000000    0.000000    -0.000000    -0.000003    9.999993    -0.000003    -0.000000    0.000000    -0.000000    -0.000000    0.000000    -0.000000    -0.000000    0.000000    -0.000000    -0.000000    0.000000    -0.000000    -0.000000    0.000000    -0.000000    -0.000000    0.000000    -0.000000    -0.000000    0.000000    -0.000000    -0.000000    0.000000    -0.000000    -0.000002    -10.000007    -0.000000    -0.000000    0.000000    -0.000000    -0.000000    0.000000    -0.000000    -5.940996    0.834018    -0.209380    71.115799    4.095786    1.973338    -10.208198    27.439951    84.777504    -56.177090    17.501410    -11.227057    -47.448208    38.866432    34.355022    34.999996    -0.000002    0.000004    -0.000000    0.000000    -0.000000    -0.000004    9.999996    -0.000016    -0.000000    0.000000    -0.000000    -0.000000    0.000000    -0.000000    -0.000000    0.000000    -0.000000    -0.000000    0.000000    -0.000000    -0.000000    0.000000    -0.000000    -0.000000    0.000000    -0.000000    -0.000000    0.000000    -0.000000    -0.000000    0.000000    -0.000000    -0.000006    -10.000001    -0.000015    -0.000000    0.000000    -0.000000    -0.000000    0.000000    -0.000000    21.768091    1.753685    -4.559704    0.000000    5.686686    -0.000001    -9.376421    -3.793540    3.068841    -0.000000    0.140479    0.000001    -1.023916    -2.074543    1.412902    -0.000001    23.462416    0.000003    11.648468    -13.431256    -18.334974    -0.000000    -3.573426    -0.000000    
